# xmcd
#
# Track frame offsets: 
#        150
#        16645
#        35989
#        47937
#        65434
#        95303
#        118781
#        144096
#        168632
#        197908
#        220744
#
# Disc length: 3236 seconds
#
# Revision: 0
# Processed by: cddbd v1.5.2PL0 Copyright (c) Steve Scherf et al.
# Submitted via: ExactAudioCopy v1.1
#
DISCID=9b0ca20b
DTITLE=Matt Woosey - Desiderata
DYEAR=1900
DGENRE=
TTITLE0=Always be the one
TTITLE1=Million Miles
TTITLE2=Who do you love?
TTITLE3=Mystified
TTITLE4=Lighthouse
TTITLE5=One Love
TTITLE6=You and me
TTITLE7=Lovin me aint easy
TTITLE8=Lighthouse demo
TTITLE9=You and Me 
TTITLE10=One Love
EXTD=
EXTT0=
EXTT1=
EXTT2=
EXTT3=
EXTT4=
EXTT5=
EXTT6=
EXTT7=
EXTT8=
EXTT9=
EXTT10=
PLAYORDER=
